<svg width="416" height="416" viewBox="0 0 416 416" fill="none" xmlns="http://www.w3.org/2000/svg">
<rect x="2" y="2" width="412" height="412" rx="41.905" fill="#080D18"/>
<rect x="2" y="2" width="412" height="412" rx="41.905" stroke="#313131" stroke-width="4"/>
<path d="M314.033 196.656C318.172 193.314 321.547 189.583 324.446 185.41C325.001 184.611 325.46 183.606 326.682 183.755C327.992 183.914 328.387 185.02 328.792 186.038C329.506 187.837 329.398 189.754 329.155 191.578C327.434 204.472 325.55 217.289 320.631 229.528C317.977 236.129 315.083 242.461 309.979 247.405C304.878 252.347 298.63 255.028 291.384 255.389C276.872 256.111 263.451 252.412 250.456 246.231C238.288 240.442 225.606 235.993 212.621 232.269C197.508 227.935 182.221 225.878 166.526 226.312C150.789 226.747 136.068 230.881 122.058 237.882C119.019 239.401 115.932 240.828 113.14 242.78C111.555 243.889 110.47 243.455 109.725 241.844C106.691 235.29 103.72 228.747 101.932 221.668C100.54 216.156 98.8706 210.752 98.227 205.054C96.6793 191.35 96.1735 177.591 99.1009 164.11C102.029 150.624 106.748 137.674 113.983 125.722C125.633 106.477 140.785 90.9183 160.34 79.5882C173.034 72.2339 186.682 67.598 200.957 65.1274C210.852 63.4147 220.925 63.0674 231.12 64.0598C240.356 64.9588 249.189 67.2063 258.103 69.3362C261.068 70.0448 263.976 71.0892 266.678 72.5814C267.428 72.9956 268.415 73.271 268.307 74.3949C268.204 75.458 267.265 75.7059 266.444 76.0129C255.34 80.1641 245.428 86.3455 236.314 93.843C226.955 101.542 219.641 110.678 214.788 121.998C210.413 132.203 208.079 142.637 208.641 153.605C209.544 171.247 217.125 185.486 231.269 196.248C244.416 206.251 259.534 209.375 275.549 208.905C289.374 208.5 302.382 204.947 314.033 196.656Z" fill="white"/>
<path d="M134.627 259.902C144.169 255.856 153.752 252.877 163.845 251.763C167.881 251.317 171.922 250.67 175.968 250.612C186.307 250.462 196.632 251.295 206.621 253.932C218.251 257.002 229.454 261.387 240.603 265.974C249.549 269.654 258.548 273.294 268.27 275.037C276.722 276.553 285.126 276.657 293.494 276.004C302.79 275.278 311.217 271.38 319.105 266.443C320.163 265.78 321.144 264.318 322.535 265.512C323.753 266.557 323.105 267.889 322.551 269.141C319.906 275.131 317.916 281.359 314.738 287.174C306.726 301.833 294.809 311.637 278.923 316.161C265.752 319.911 252.333 320.821 238.533 318.726C226.094 316.837 214.09 313.486 202.243 309.714C194.363 307.205 186.587 304.11 178.701 301.539C163.794 296.679 148.684 292.71 132.8 292.197C118.83 291.746 104.941 291.715 91.1365 294.186C90.4931 294.301 89.8218 294.285 89.1634 294.286C88.2884 294.288 87.3271 294.377 86.8907 293.37C86.414 292.269 87.0759 291.497 87.7778 290.759C93.3986 284.853 99.5541 279.569 106.363 275.085C115.257 269.228 124.368 263.757 134.627 259.902Z" fill="white"/>
<path d="M222.617 351.333C214.096 352.768 205.845 353.195 197.449 352.673C179.677 351.568 164.098 344.123 148.388 336.787C140.156 332.942 131.743 329.482 123.207 326.313C116.108 323.678 108.935 321.393 101.551 319.745C100.584 319.529 99.4367 319.388 99.2151 318.235C98.9569 316.892 100.067 316.166 101.074 315.855C105.677 314.43 110.261 312.845 114.966 311.87C125.72 309.641 136.583 309.709 147.315 311.909C153.734 313.224 160.134 314.939 166.281 317.188C171.93 319.255 177.787 320.666 183.343 322.991C190.412 325.948 197.905 327.637 205.143 330.099C211.161 332.146 217.463 333.096 223.707 334.099C226.513 334.549 229.312 335.121 232.116 335.583C239.103 336.735 245.852 335.828 252.428 333.557C253.835 335.987 252.352 336.95 251.121 337.995C242.91 344.97 233.325 349.021 222.617 351.333Z" fill="white"/>
</svg>
